<svg width="119" height="29" viewBox="0 0 119 29" fill="none" xmlns="http://www.w3.org/2000/svg">
<g clip-path="url(#clip0_105_118)">
<path d="M95.9989 8.82005V1.80005H118.319V8.82005H111.119V27H103.199V8.82005H95.9989Z" fill="#B6B6B6"/>
<path d="M78.6124 23.76V18.072H91.9324V23.76H78.6124ZM85.2003 13.248L82.1043 20.196L82.7163 21.996L79.9803 27H70.9803L85.2003 0L99.4203 27H90.4203L87.7563 22.248L88.2963 20.196L85.2003 13.248Z" fill="#B6B6B6"/>
<path d="M52.2038 14.4001C52.2038 15.6241 52.4318 16.7041 52.8878 17.6401C53.3438 18.5761 53.9918 19.3081 54.8318 19.8361C55.6718 20.3401 56.6798 20.5921 57.8558 20.5921C59.0318 20.5921 60.0398 20.3401 60.8798 19.8361C61.7198 19.3081 62.3678 18.5761 62.8238 17.6401C63.2798 16.7041 63.5078 15.6241 63.5078 14.4001C63.5078 13.1521 63.2918 12.0721 62.8598 11.1601C62.4278 10.2241 61.7918 9.50408 60.9518 9.00008C60.1358 8.47208 59.1038 8.20808 57.8558 8.20808C56.6798 8.20808 55.6718 8.47208 54.8318 9.00008C53.9918 9.50408 53.3438 10.2241 52.8878 11.1601C52.4318 12.0721 52.2038 13.1521 52.2038 14.4001ZM43.8158 14.4001C43.8158 12.3841 44.1758 10.5601 44.8958 8.92808C45.6158 7.29608 46.6118 5.89208 47.8838 4.71608C49.1558 3.54008 50.6438 2.64008 52.3478 2.01608C54.0518 1.39208 55.8878 1.08008 57.8558 1.08008C59.8718 1.08008 61.7318 1.39208 63.4358 2.01608C65.1398 2.64008 66.6278 3.54008 67.8998 4.71608C69.1718 5.89208 70.1558 7.29608 70.8518 8.92808C71.5478 10.5601 71.8958 12.3841 71.8958 14.4001C71.8958 16.4161 71.5478 18.2641 70.8518 19.9441C70.1798 21.6001 69.2198 23.0401 67.9718 24.2641C66.7238 25.4881 65.2358 26.4241 63.5078 27.0721C61.8038 27.7441 59.9198 28.0801 57.8558 28.0801C55.7918 28.0801 53.8958 27.7441 52.1678 27.0721C50.4638 26.4241 48.9878 25.4881 47.7398 24.2641C46.4918 23.0401 45.5198 21.6001 44.8238 19.9441C44.1518 18.2641 43.8158 16.4161 43.8158 14.4001Z" fill="#B6B6B6"/>
<path d="M26.3586 1.80005H34.2786V20.34H44.5386V27H26.3586V1.80005Z" fill="#B6B6B6"/>
<path d="M8.79196 14.4001C8.79196 15.6961 9.07996 16.7881 9.65596 17.6761C10.256 18.5401 11.036 19.1881 11.996 19.6201C12.98 20.0521 14.06 20.2681 15.236 20.2681C16.436 20.2681 17.468 20.1121 18.332 19.8001C19.196 19.4881 19.952 19.1041 20.6 18.6481C21.272 18.1681 21.872 17.6761 22.4 17.1721V25.3081C21.416 25.9801 20.336 26.5441 19.16 27.0001C18.008 27.4801 16.508 27.7201 14.66 27.7201C12.476 27.7201 10.484 27.4081 8.68396 26.7841C6.88396 26.1601 5.34796 25.2601 4.07596 24.0841C2.80396 22.9081 1.81996 21.5041 1.12396 19.8721C0.427956 18.2401 0.0799561 16.4161 0.0799561 14.4001C0.0799561 12.3841 0.427956 10.5601 1.12396 8.92808C1.81996 7.29608 2.80396 5.89208 4.07596 4.71608C5.34796 3.54008 6.88396 2.64008 8.68396 2.01608C10.484 1.39208 12.476 1.08008 14.66 1.08008C16.508 1.08008 18.008 1.30808 19.16 1.76408C20.336 2.22008 21.416 2.79608 22.4 3.49208V11.6281C21.872 11.1241 21.272 10.6321 20.6 10.1521C19.952 9.67208 19.196 9.28808 18.332 9.00008C17.468 8.68808 16.436 8.53208 15.236 8.53208C14.06 8.53208 12.98 8.74808 11.996 9.18008C11.036 9.61208 10.256 10.2721 9.65596 11.1601C9.07996 12.0241 8.79196 13.1041 8.79196 14.4001Z" fill="#B6B6B6"/>
</g>
<defs>
<clipPath id="clip0_105_118">
<rect width="119" height="29" fill="white"/>
</clipPath>
</defs>
</svg>
