<svg width="119" height="29" viewBox="0 0 119 29" fill="none" xmlns="http://www.w3.org/2000/svg">
<path d="M95.9989 8.82V1.8H118.319V8.82H111.119V27H103.199V8.82H95.9989Z" fill="#2A9D8F"/>
<path d="M78.6124 23.76V18.072H91.9324V23.76H78.6124ZM85.2003 13.248L82.1043 20.196L82.7163 21.996L79.9803 27H70.9803L85.2003 0L99.4203 27H90.4203L87.7563 22.248L88.2963 20.196L85.2003 13.248Z" fill="#2A9D8F"/>
<path d="M52.2038 14.4C52.2038 15.624 52.4318 16.704 52.8878 17.64C53.3438 18.576 53.9918 19.308 54.8318 19.836C55.6718 20.34 56.6798 20.592 57.8558 20.592C59.0318 20.592 60.0398 20.34 60.8798 19.836C61.7198 19.308 62.3678 18.576 62.8238 17.64C63.2798 16.704 63.5078 15.624 63.5078 14.4C63.5078 13.152 63.2918 12.072 62.8598 11.16C62.4278 10.224 61.7918 9.504 60.9518 9C60.1358 8.472 59.1038 8.208 57.8558 8.208C56.6798 8.208 55.6718 8.472 54.8318 9C53.9918 9.504 53.3438 10.224 52.8878 11.16C52.4318 12.072 52.2038 13.152 52.2038 14.4ZM43.8158 14.4C43.8158 12.384 44.1758 10.56 44.8958 8.928C45.6158 7.296 46.6118 5.892 47.8838 4.716C49.1558 3.54 50.6438 2.64 52.3478 2.016C54.0518 1.392 55.8878 1.08 57.8558 1.08C59.8718 1.08 61.7318 1.392 63.4358 2.016C65.1398 2.64 66.6278 3.54 67.8998 4.716C69.1718 5.892 70.1558 7.296 70.8518 8.928C71.5478 10.56 71.8958 12.384 71.8958 14.4C71.8958 16.416 71.5478 18.264 70.8518 19.944C70.1798 21.6 69.2198 23.04 67.9718 24.264C66.7238 25.488 65.2358 26.424 63.5078 27.072C61.8038 27.744 59.9198 28.08 57.8558 28.08C55.7918 28.08 53.8958 27.744 52.1678 27.072C50.4638 26.424 48.9878 25.488 47.7398 24.264C46.4918 23.04 45.5198 21.6 44.8238 19.944C44.1518 18.264 43.8158 16.416 43.8158 14.4Z" fill="#2A9D8F"/>
<path d="M26.3586 1.8H34.2786V20.34H44.5386V27H26.3586V1.8Z" fill="#2A9D8F"/>
<path d="M8.79196 14.4C8.79196 15.696 9.07996 16.788 9.65596 17.676C10.256 18.54 11.036 19.188 11.996 19.62C12.98 20.052 14.06 20.268 15.236 20.268C16.436 20.268 17.468 20.112 18.332 19.8C19.196 19.488 19.952 19.104 20.6 18.648C21.272 18.168 21.872 17.676 22.4 17.172V25.308C21.416 25.98 20.336 26.544 19.16 27C18.008 27.48 16.508 27.72 14.66 27.72C12.476 27.72 10.484 27.408 8.68396 26.784C6.88396 26.16 5.34796 25.26 4.07596 24.084C2.80396 22.908 1.81996 21.504 1.12396 19.872C0.427956 18.24 0.0799561 16.416 0.0799561 14.4C0.0799561 12.384 0.427956 10.56 1.12396 8.928C1.81996 7.296 2.80396 5.892 4.07596 4.716C5.34796 3.54 6.88396 2.64 8.68396 2.016C10.484 1.392 12.476 1.08 14.66 1.08C16.508 1.08 18.008 1.308 19.16 1.764C20.336 2.22 21.416 2.796 22.4 3.492V11.628C21.872 11.124 21.272 10.632 20.6 10.152C19.952 9.672 19.196 9.288 18.332 9C17.468 8.688 16.436 8.532 15.236 8.532C14.06 8.532 12.98 8.748 11.996 9.18C11.036 9.612 10.256 10.272 9.65596 11.16C9.07996 12.024 8.79196 13.104 8.79196 14.4Z" fill="#2A9D8F"/>
</svg>
